<?xml version="1.0" encoding="utf-8" standalone="no"?>
<!DOCTYPE svg PUBLIC "-//W3C//DTD SVG 1.1//EN"
  "http://www.w3.org/Graphics/SVG/1.1/DTD/svg11.dtd">
<svg xmlns:xlink="http://www.w3.org/1999/xlink" width="703.538473pt" height="344.401875pt" viewBox="0 0 703.538473 344.401875" xmlns="http://www.w3.org/2000/svg" version="1.1">
 <metadata>
  <rdf:RDF xmlns:dc="http://purl.org/dc/elements/1.1/" xmlns:cc="http://creativecommons.org/ns#" xmlns:rdf="http://www.w3.org/1999/02/22-rdf-syntax-ns#">
   <cc:Work>
    <dc:type rdf:resource="http://purl.org/dc/dcmitype/StillImage"/>
    <dc:date>2025-07-01T17:07:21.288054</dc:date>
    <dc:format>image/svg+xml</dc:format>
    <dc:creator>
     <cc:Agent>
      <dc:title>Matplotlib v3.10.1, https://matplotlib.org/</dc:title>
     </cc:Agent>
    </dc:creator>
   </cc:Work>
  </rdf:RDF>
 </metadata>
 <defs>
  <style type="text/css">*{stroke-linejoin: round; stroke-linecap: butt}</style>
 </defs>
 <g id="figure_1">
  <g id="patch_1">
   <path d="M 0 344.401875 
L 703.538473 344.401875 
L 703.538473 0 
L 0 0 
z
" style="fill: #ffffff"/>
  </g>
  <g id="axes_1">
   <g id="patch_2">
    <path d="M 51.75375 311.454375 
L 596.621641 311.454375 
L 596.621641 18.189375 
L 51.75375 18.189375 
z
" style="fill: #ffffff"/>
   </g>
   <g id="patch_3">
    <path d="M 76.520472 311.454375 
L 144.842465 311.454375 
L 144.842465 311.454375 
L 76.520472 311.454375 
z
" clip-path="url(#p9128739f82)" style="fill: #7bbcb6"/>
   </g>
   <g id="patch_4">
    <path d="M 161.922963 311.454375 
L 230.244956 311.454375 
L 230.244956 311.450856 
L 161.922963 311.450856 
z
" clip-path="url(#p9128739f82)" style="fill: #7bbcb6"/>
   </g>
   <g id="patch_5">
    <path d="M 247.325454 311.454375 
L 315.647446 311.454375 
L 315.647446 311.454375 
L 247.325454 311.454375 
z
" clip-path="url(#p9128739f82)" style="fill: #7bbcb6"/>
   </g>
   <g id="patch_6">
    <path d="M 332.727944 311.454375 
L 401.049937 311.454375 
L 401.049937 311.454375 
L 332.727944 311.454375 
z
" clip-path="url(#p9128739f82)" style="fill: #7bbcb6"/>
   </g>
   <g id="patch_7">
    <path d="M 418.130435 311.454375 
L 486.452428 311.454375 
L 486.452428 311.256128 
L 418.130435 311.256128 
z
" clip-path="url(#p9128739f82)" style="fill: #7bbcb6"/>
   </g>
   <g id="patch_8">
    <path d="M 503.532926 311.454375 
L 571.854918 311.454375 
L 571.854918 311.454375 
L 503.532926 311.454375 
z
" clip-path="url(#p9128739f82)" style="fill: #7bbcb6"/>
   </g>
   <g id="patch_9">
    <path d="M 76.520472 311.454375 
L 144.842465 311.454375 
L 144.842465 311.454375 
L 76.520472 311.454375 
z
" clip-path="url(#p9128739f82)" style="fill: #9aa3b2"/>
   </g>
   <g id="patch_10">
    <path d="M 161.922963 311.450856 
L 230.244956 311.450856 
L 230.244956 311.310089 
L 161.922963 311.310089 
z
" clip-path="url(#p9128739f82)" style="fill: #9aa3b2"/>
   </g>
   <g id="patch_11">
    <path d="M 247.325454 311.454375 
L 315.647446 311.454375 
L 315.647446 311.454375 
L 247.325454 311.454375 
z
" clip-path="url(#p9128739f82)" style="fill: #9aa3b2"/>
   </g>
   <g id="patch_12">
    <path d="M 332.727944 311.454375 
L 401.049937 311.454375 
L 401.049937 311.454375 
L 332.727944 311.454375 
z
" clip-path="url(#p9128739f82)" style="fill: #9aa3b2"/>
   </g>
   <g id="patch_13">
    <path d="M 418.130435 311.256128 
L 486.452428 311.256128 
L 486.452428 311.256128 
L 418.130435 311.256128 
z
" clip-path="url(#p9128739f82)" style="fill: #9aa3b2"/>
   </g>
   <g id="patch_14">
    <path d="M 503.532926 311.454375 
L 571.854918 311.454375 
L 571.854918 305.345079 
L 503.532926 305.345079 
z
" clip-path="url(#p9128739f82)" style="fill: #9aa3b2"/>
   </g>
   <g id="patch_15">
    <path d="M 76.520472 311.454375 
L 144.842465 311.454375 
L 144.842465 311.454375 
L 76.520472 311.454375 
z
" clip-path="url(#p9128739f82)" style="fill: #f5c518"/>
   </g>
   <g id="patch_16">
    <path d="M 161.922963 311.310089 
L 230.244956 311.310089 
L 230.244956 311.025035 
L 161.922963 311.025035 
z
" clip-path="url(#p9128739f82)" style="fill: #f5c518"/>
   </g>
   <g id="patch_17">
    <path d="M 247.325454 311.454375 
L 315.647446 311.454375 
L 315.647446 307.355703 
L 247.325454 307.355703 
z
" clip-path="url(#p9128739f82)" style="fill: #f5c518"/>
   </g>
   <g id="patch_18">
    <path d="M 332.727944 311.454375 
L 401.049937 311.454375 
L 401.049937 311.454375 
L 332.727944 311.454375 
z
" clip-path="url(#p9128739f82)" style="fill: #f5c518"/>
   </g>
   <g id="patch_19">
    <path d="M 418.130435 311.256128 
L 486.452428 311.256128 
L 486.452428 294.807481 
L 418.130435 294.807481 
z
" clip-path="url(#p9128739f82)" style="fill: #f5c518"/>
   </g>
   <g id="patch_20">
    <path d="M 503.532926 305.345079 
L 571.854918 305.345079 
L 571.854918 305.345079 
L 503.532926 305.345079 
z
" clip-path="url(#p9128739f82)" style="fill: #f5c518"/>
   </g>
   <g id="patch_21">
    <path d="M 76.520472 311.454375 
L 144.842465 311.454375 
L 144.842465 311.454375 
L 76.520472 311.454375 
z
" clip-path="url(#p9128739f82)" style="fill: #c08c38"/>
   </g>
   <g id="patch_22">
    <path d="M 161.922963 311.025035 
L 230.244956 311.025035 
L 230.244956 311.020343 
L 161.922963 311.020343 
z
" clip-path="url(#p9128739f82)" style="fill: #c08c38"/>
   </g>
   <g id="patch_23">
    <path d="M 247.325454 307.355703 
L 315.647446 307.355703 
L 315.647446 307.355703 
L 247.325454 307.355703 
z
" clip-path="url(#p9128739f82)" style="fill: #c08c38"/>
   </g>
   <g id="patch_24">
    <path d="M 332.727944 311.454375 
L 401.049937 311.454375 
L 401.049937 288.146846 
L 332.727944 288.146846 
z
" clip-path="url(#p9128739f82)" style="fill: #c08c38"/>
   </g>
   <g id="patch_25">
    <path d="M 418.130435 294.807481 
L 486.452428 294.807481 
L 486.452428 294.807481 
L 418.130435 294.807481 
z
" clip-path="url(#p9128739f82)" style="fill: #c08c38"/>
   </g>
   <g id="patch_26">
    <path d="M 503.532926 305.345079 
L 571.854918 305.345079 
L 571.854918 305.345079 
L 503.532926 305.345079 
z
" clip-path="url(#p9128739f82)" style="fill: #c08c38"/>
   </g>
   <g id="patch_27">
    <path d="M 76.520472 311.454375 
L 144.842465 311.454375 
L 144.842465 311.408626 
L 76.520472 311.408626 
z
" clip-path="url(#p9128739f82)" style="fill: #2a7a78"/>
   </g>
   <g id="patch_28">
    <path d="M 161.922963 311.020343 
L 230.244956 311.020343 
L 230.244956 181.061718 
L 161.922963 181.061718 
z
" clip-path="url(#p9128739f82)" style="fill: #2a7a78"/>
   </g>
   <g id="patch_29">
    <path d="M 247.325454 307.355703 
L 315.647446 307.355703 
L 315.647446 262.307853 
L 247.325454 262.307853 
z
" clip-path="url(#p9128739f82)" style="fill: #2a7a78"/>
   </g>
   <g id="patch_30">
    <path d="M 332.727944 288.146846 
L 401.049937 288.146846 
L 401.049937 288.133942 
L 332.727944 288.133942 
z
" clip-path="url(#p9128739f82)" style="fill: #2a7a78"/>
   </g>
   <g id="patch_31">
    <path d="M 418.130435 294.807481 
L 486.452428 294.807481 
L 486.452428 294.807481 
L 418.130435 294.807481 
z
" clip-path="url(#p9128739f82)" style="fill: #2a7a78"/>
   </g>
   <g id="patch_32">
    <path d="M 503.532926 305.345079 
L 571.854918 305.345079 
L 571.854918 305.345079 
L 503.532926 305.345079 
z
" clip-path="url(#p9128739f82)" style="fill: #2a7a78"/>
   </g>
   <g id="patch_33">
    <path d="M 76.520472 311.408626 
L 144.842465 311.408626 
L 144.842465 59.076381 
L 76.520472 59.076381 
z
" clip-path="url(#p9128739f82)" style="fill: #3f5573"/>
   </g>
   <g id="patch_34">
    <path d="M 161.922963 181.061718 
L 230.244956 181.061718 
L 230.244956 181.052333 
L 161.922963 181.052333 
z
" clip-path="url(#p9128739f82)" style="fill: #3f5573"/>
   </g>
   <g id="patch_35">
    <path d="M 247.325454 262.307853 
L 315.647446 262.307853 
L 315.647446 261.616921 
L 247.325454 261.616921 
z
" clip-path="url(#p9128739f82)" style="fill: #3f5573"/>
   </g>
   <g id="patch_36">
    <path d="M 332.727944 288.133942 
L 401.049937 288.133942 
L 401.049937 288.132769 
L 332.727944 288.132769 
z
" clip-path="url(#p9128739f82)" style="fill: #3f5573"/>
   </g>
   <g id="patch_37">
    <path d="M 418.130435 294.807481 
L 486.452428 294.807481 
L 486.452428 294.807481 
L 418.130435 294.807481 
z
" clip-path="url(#p9128739f82)" style="fill: #3f5573"/>
   </g>
   <g id="patch_38">
    <path d="M 503.532926 305.345079 
L 571.854918 305.345079 
L 571.854918 305.345079 
L 503.532926 305.345079 
z
" clip-path="url(#p9128739f82)" style="fill: #3f5573"/>
   </g>
   <g id="matplotlib.axis_1">
    <g id="xtick_1">
     <g id="line2d_1">
      <defs>
       <path id="m0a42b04fdf" d="M 0 0 
L 0 -3 
" style="stroke: #000000; stroke-width: 0.5"/>
      </defs>
      <g>
       <use xlink:href="#m0a42b04fdf" x="110.681469" y="311.454375" style="stroke: #000000; stroke-width: 0.5"/>
      </g>
     </g>
     <g id="line2d_2">
      <defs>
       <path id="m7ffb63e8e5" d="M 0 0 
L 0 3 
" style="stroke: #000000; stroke-width: 0.5"/>
      </defs>
      <g>
       <use xlink:href="#m7ffb63e8e5" x="110.681469" y="18.189375" style="stroke: #000000; stroke-width: 0.5"/>
      </g>
     </g>
     <g id="text_1">
      <!-- Germany -->
      <g transform="translate(86.476156 323.41625) scale(0.12 -0.12)">
       <defs>
        <path id="Cmr10-47" d="M 1472 684 
Q 1703 403 2036 243 
Q 2369 84 2731 84 
Q 3088 84 3378 265 
Q 3669 447 3669 781 
L 3669 1319 
Q 3669 1522 2869 1522 
L 2869 1747 
L 4703 1747 
L 4703 1522 
Q 4500 1522 4381 1487 
Q 4263 1453 4263 1319 
L 4263 56 
Q 4263 34 4245 17 
Q 4228 0 4206 0 
Q 4147 0 4008 140 
Q 3869 281 3788 391 
Q 3631 122 3297 -9 
Q 2963 -141 2597 -141 
Q 1975 -141 1464 179 
Q 953 500 656 1036 
Q 359 1572 359 2188 
Q 359 2641 531 3069 
Q 703 3497 1011 3822 
Q 1319 4147 1728 4330 
Q 2138 4513 2597 4513 
Q 2928 4513 3223 4370 
Q 3519 4228 3750 3969 
L 4122 4494 
Q 4159 4513 4166 4513 
L 4213 4513 
Q 4231 4513 4247 4497 
Q 4263 4481 4263 4459 
L 4263 2731 
Q 4263 2675 4213 2675 
L 4097 2675 
Q 4038 2675 4038 2731 
Q 4038 2916 3964 3144 
Q 3891 3372 3777 3576 
Q 3663 3781 3513 3938 
Q 3153 4288 2688 4288 
Q 2331 4288 2006 4128 
Q 1681 3969 1459 3688 
Q 1225 3388 1134 3005 
Q 1044 2622 1044 2188 
Q 1044 1206 1472 684 
z
" transform="scale(0.015625)"/>
        <path id="Cmr10-65" d="M 1594 -72 
Q 1203 -72 876 133 
Q 550 338 364 680 
Q 178 1022 178 1403 
Q 178 1778 348 2115 
Q 519 2453 823 2661 
Q 1128 2869 1503 2869 
Q 1797 2869 2014 2770 
Q 2231 2672 2372 2497 
Q 2513 2322 2584 2084 
Q 2656 1847 2656 1563 
Q 2656 1478 2591 1478 
L 738 1478 
L 738 1409 
Q 738 878 952 497 
Q 1166 116 1650 116 
Q 1847 116 2014 203 
Q 2181 291 2304 447 
Q 2428 603 2472 781 
Q 2478 803 2495 820 
Q 2513 838 2534 838 
L 2591 838 
Q 2656 838 2656 756 
Q 2566 394 2266 161 
Q 1966 -72 1594 -72 
z
M 744 1638 
L 2203 1638 
Q 2203 1878 2136 2125 
Q 2069 2372 1912 2536 
Q 1756 2700 1503 2700 
Q 1141 2700 942 2361 
Q 744 2022 744 1638 
z
" transform="scale(0.015625)"/>
        <path id="Cmr10-72" d="M 166 0 
L 166 225 
Q 384 225 525 259 
Q 666 294 666 428 
L 666 2175 
Q 666 2347 614 2423 
Q 563 2500 466 2517 
Q 369 2534 166 2534 
L 166 2759 
L 1081 2828 
L 1081 2203 
Q 1184 2481 1375 2654 
Q 1566 2828 1838 2828 
Q 2028 2828 2178 2715 
Q 2328 2603 2328 2419 
Q 2328 2303 2245 2217 
Q 2163 2131 2041 2131 
Q 1922 2131 1837 2215 
Q 1753 2300 1753 2419 
Q 1753 2591 1875 2663 
L 1838 2663 
Q 1578 2663 1414 2475 
Q 1250 2288 1181 2009 
Q 1113 1731 1113 1478 
L 1113 428 
Q 1113 225 1734 225 
L 1734 0 
L 166 0 
z
" transform="scale(0.015625)"/>
        <path id="Cmr10-6d" d="M 191 0 
L 191 225 
Q 409 225 550 259 
Q 691 294 691 428 
L 691 2175 
Q 691 2347 639 2423 
Q 588 2500 491 2517 
Q 394 2534 191 2534 
L 191 2759 
L 1119 2828 
L 1119 2203 
Q 1247 2478 1498 2653 
Q 1750 2828 2047 2828 
Q 2784 2828 2913 2228 
Q 3041 2497 3287 2662 
Q 3534 2828 3828 2828 
Q 4119 2828 4317 2734 
Q 4516 2641 4616 2448 
Q 4716 2256 4716 1966 
L 4716 428 
Q 4716 294 4858 259 
Q 5000 225 5216 225 
L 5216 0 
L 3750 0 
L 3750 225 
Q 3969 225 4109 259 
Q 4250 294 4250 428 
L 4250 1947 
Q 4250 2269 4159 2466 
Q 4069 2663 3788 2663 
Q 3419 2663 3178 2366 
Q 2938 2069 2938 1691 
L 2938 428 
Q 2938 294 3078 259 
Q 3219 225 3438 225 
L 3438 0 
L 1972 0 
L 1972 225 
Q 2191 225 2331 259 
Q 2472 294 2472 428 
L 2472 1947 
Q 2472 2259 2381 2461 
Q 2291 2663 2009 2663 
Q 1638 2663 1398 2366 
Q 1159 2069 1159 1691 
L 1159 428 
Q 1159 294 1300 259 
Q 1441 225 1656 225 
L 1656 0 
L 191 0 
z
" transform="scale(0.015625)"/>
        <path id="Cmr10-61" d="M 256 628 
Q 256 1009 556 1248 
Q 856 1488 1276 1586 
Q 1697 1684 2075 1684 
L 2075 1947 
Q 2075 2131 1994 2304 
Q 1913 2478 1759 2589 
Q 1606 2700 1422 2700 
Q 997 2700 775 2509 
Q 897 2509 976 2417 
Q 1056 2325 1056 2203 
Q 1056 2075 965 1984 
Q 875 1894 750 1894 
Q 622 1894 531 1984 
Q 441 2075 441 2203 
Q 441 2541 747 2705 
Q 1053 2869 1422 2869 
Q 1681 2869 1943 2758 
Q 2206 2647 2373 2440 
Q 2541 2234 2541 1959 
L 2541 519 
Q 2541 394 2594 289 
Q 2647 184 2759 184 
Q 2866 184 2917 290 
Q 2969 397 2969 519 
L 2969 928 
L 3156 928 
L 3156 519 
Q 3156 375 3081 245 
Q 3006 116 2879 39 
Q 2753 -38 2606 -38 
Q 2419 -38 2283 107 
Q 2147 253 2131 453 
Q 2013 213 1781 70 
Q 1550 -72 1288 -72 
Q 1044 -72 808 0 
Q 572 72 414 226 
Q 256 381 256 628 
z
M 775 628 
Q 775 403 940 250 
Q 1106 97 1331 97 
Q 1538 97 1706 200 
Q 1875 303 1975 481 
Q 2075 659 2075 856 
L 2075 1522 
Q 1784 1522 1479 1426 
Q 1175 1331 975 1128 
Q 775 925 775 628 
z
" transform="scale(0.015625)"/>
        <path id="Cmr10-6e" d="M 191 0 
L 191 225 
Q 409 225 550 259 
Q 691 294 691 428 
L 691 2175 
Q 691 2347 639 2423 
Q 588 2500 491 2517 
Q 394 2534 191 2534 
L 191 2759 
L 1119 2828 
L 1119 2203 
Q 1247 2478 1498 2653 
Q 1750 2828 2047 2828 
Q 2491 2828 2714 2615 
Q 2938 2403 2938 1966 
L 2938 428 
Q 2938 294 3078 259 
Q 3219 225 3438 225 
L 3438 0 
L 1972 0 
L 1972 225 
Q 2191 225 2331 259 
Q 2472 294 2472 428 
L 2472 1947 
Q 2472 2259 2381 2461 
Q 2291 2663 2009 2663 
Q 1638 2663 1398 2366 
Q 1159 2069 1159 1691 
L 1159 428 
Q 1159 294 1300 259 
Q 1441 225 1656 225 
L 1656 0 
L 191 0 
z
" transform="scale(0.015625)"/>
        <path id="Cmr10-79" d="M 441 -1050 
Q 563 -1147 709 -1147 
Q 1113 -1147 1369 -538 
L 1588 0 
L 628 2350 
Q 569 2469 447 2501 
Q 325 2534 122 2534 
L 122 2759 
L 1466 2759 
L 1466 2534 
Q 1113 2534 1113 2381 
Q 1113 2356 1119 2344 
L 1831 594 
L 2472 2169 
Q 2491 2219 2491 2278 
Q 2491 2356 2448 2414 
Q 2406 2472 2339 2503 
Q 2272 2534 2188 2534 
L 2188 2759 
L 3250 2759 
L 3250 2534 
Q 3053 2534 2904 2443 
Q 2756 2353 2675 2175 
L 1569 -538 
Q 1481 -744 1364 -917 
Q 1247 -1091 1078 -1202 
Q 909 -1313 709 -1313 
Q 475 -1313 298 -1158 
Q 122 -1003 122 -775 
Q 122 -656 203 -575 
Q 284 -494 403 -494 
Q 484 -494 548 -530 
Q 613 -566 648 -628 
Q 684 -691 684 -775 
Q 684 -878 615 -959 
Q 547 -1041 441 -1050 
z
" transform="scale(0.015625)"/>
       </defs>
       <use xlink:href="#Cmr10-47"/>
       <use xlink:href="#Cmr10-65" transform="translate(78.417969 0)"/>
       <use xlink:href="#Cmr10-72" transform="translate(122.802734 0)"/>
       <use xlink:href="#Cmr10-6d" transform="translate(161.914062 0)"/>
       <use xlink:href="#Cmr10-61" transform="translate(245.214844 0)"/>
       <use xlink:href="#Cmr10-6e" transform="translate(295.214844 0)"/>
       <use xlink:href="#Cmr10-79" transform="translate(350.732422 0)"/>
      </g>
     </g>
    </g>
    <g id="xtick_2">
     <g id="line2d_3">
      <g>
       <use xlink:href="#m0a42b04fdf" x="196.083959" y="311.454375" style="stroke: #000000; stroke-width: 0.5"/>
      </g>
     </g>
     <g id="line2d_4">
      <g>
       <use xlink:href="#m7ffb63e8e5" x="196.083959" y="18.189375" style="stroke: #000000; stroke-width: 0.5"/>
      </g>
     </g>
     <g id="text_2">
      <!-- United Kingdom -->
      <g transform="translate(152.288647 323.28125) scale(0.12 -0.12)">
       <defs>
        <path id="Cmr10-55" d="M 856 1447 
L 856 3944 
Q 856 4147 197 4147 
L 197 4372 
L 2113 4372 
L 2113 4147 
Q 1453 4147 1453 3944 
L 1453 1472 
Q 1453 1116 1551 798 
Q 1650 481 1883 282 
Q 2116 84 2491 84 
Q 2856 84 3134 276 
Q 3413 469 3563 787 
Q 3713 1106 3713 1472 
L 3713 3769 
Q 3713 4147 3053 4147 
L 3053 4372 
L 4594 4372 
L 4594 4147 
Q 3938 4147 3938 3769 
L 3938 1447 
Q 3938 1150 3833 865 
Q 3728 581 3529 351 
Q 3331 122 3062 -9 
Q 2794 -141 2491 -141 
Q 2066 -141 1686 71 
Q 1306 284 1081 650 
Q 856 1016 856 1447 
z
" transform="scale(0.015625)"/>
        <path id="Cmr10-69" d="M 197 0 
L 197 225 
Q 416 225 556 259 
Q 697 294 697 428 
L 697 2175 
Q 697 2422 601 2478 
Q 506 2534 225 2534 
L 225 2759 
L 1147 2828 
L 1147 428 
Q 1147 294 1269 259 
Q 1391 225 1594 225 
L 1594 0 
L 197 0 
z
M 469 3928 
Q 469 4069 575 4175 
Q 681 4281 819 4281 
Q 909 4281 993 4234 
Q 1078 4188 1125 4103 
Q 1172 4019 1172 3928 
Q 1172 3791 1065 3684 
Q 959 3578 819 3578 
Q 681 3578 575 3684 
Q 469 3791 469 3928 
z
" transform="scale(0.015625)"/>
        <path id="Cmr10-74" d="M 653 769 
L 653 2534 
L 122 2534 
L 122 2700 
Q 541 2700 737 3090 
Q 934 3481 934 3938 
L 1119 3938 
L 1119 2759 
L 2022 2759 
L 2022 2534 
L 1119 2534 
L 1119 781 
Q 1119 516 1208 316 
Q 1297 116 1528 116 
Q 1747 116 1844 327 
Q 1941 538 1941 781 
L 1941 1159 
L 2125 1159 
L 2125 769 
Q 2125 569 2051 373 
Q 1978 178 1834 53 
Q 1691 -72 1484 -72 
Q 1100 -72 876 158 
Q 653 388 653 769 
z
" transform="scale(0.015625)"/>
        <path id="Cmr10-64" d="M 1563 -72 
Q 1184 -72 871 133 
Q 559 338 386 672 
Q 213 1006 213 1381 
Q 213 1769 402 2101 
Q 591 2434 916 2631 
Q 1241 2828 1631 2828 
Q 1866 2828 2075 2729 
Q 2284 2631 2438 2456 
L 2438 3788 
Q 2438 3959 2386 4036 
Q 2334 4113 2239 4130 
Q 2144 4147 1941 4147 
L 1941 4372 
L 2888 4441 
L 2888 581 
Q 2888 413 2939 336 
Q 2991 259 3086 242 
Q 3181 225 3384 225 
L 3384 0 
L 2419 -72 
L 2419 331 
Q 2253 141 2025 34 
Q 1797 -72 1563 -72 
z
M 909 556 
Q 1019 347 1201 222 
Q 1384 97 1600 97 
Q 1866 97 2087 250 
Q 2309 403 2419 647 
L 2419 2181 
Q 2344 2322 2230 2433 
Q 2116 2544 1973 2603 
Q 1831 2663 1672 2663 
Q 1338 2663 1134 2473 
Q 931 2284 850 1990 
Q 769 1697 769 1375 
Q 769 1119 795 928 
Q 822 738 909 556 
z
" transform="scale(0.015625)"/>
        <path id="Cmr10-20" transform="scale(0.015625)"/>
        <path id="Cmr10-4b" d="M 197 0 
L 197 225 
Q 856 225 856 428 
L 856 3944 
Q 856 4147 197 4147 
L 197 4372 
L 2113 4372 
L 2113 4147 
Q 1453 4147 1453 3944 
L 1453 1869 
L 3431 3769 
Q 3513 3856 3513 3944 
Q 3513 4044 3427 4095 
Q 3341 4147 3231 4147 
L 3231 4372 
L 4622 4372 
L 4622 4147 
Q 4097 4147 3700 3769 
L 2566 2681 
L 3969 603 
Q 4141 350 4270 287 
Q 4400 225 4709 225 
L 4709 0 
L 3034 0 
L 3034 225 
Q 3188 225 3292 256 
Q 3397 288 3397 403 
Q 3397 481 3316 603 
L 2169 2303 
L 1453 1613 
L 1453 428 
Q 1453 225 2113 225 
L 2113 0 
L 197 0 
z
" transform="scale(0.015625)"/>
        <path id="Cmr10-67" d="M 178 -500 
Q 178 -272 343 -101 
Q 509 69 738 141 
Q 609 238 542 384 
Q 475 531 475 697 
Q 475 997 666 1228 
Q 372 1516 372 1888 
Q 372 2088 458 2263 
Q 544 2438 697 2566 
Q 850 2694 1037 2761 
Q 1225 2828 1422 2828 
Q 1803 2828 2106 2606 
Q 2238 2747 2417 2823 
Q 2597 2900 2791 2900 
Q 2928 2900 3015 2801 
Q 3103 2703 3103 2566 
Q 3103 2488 3043 2428 
Q 2984 2369 2906 2369 
Q 2825 2369 2765 2428 
Q 2706 2488 2706 2566 
Q 2706 2684 2784 2731 
Q 2453 2731 2216 2503 
Q 2331 2388 2401 2220 
Q 2472 2053 2472 1888 
Q 2472 1616 2322 1398 
Q 2172 1181 1926 1061 
Q 1681 941 1422 941 
Q 1072 941 781 1131 
Q 691 1006 691 850 
Q 691 681 802 554 
Q 913 428 1081 428 
L 1606 428 
Q 1988 428 2294 359 
Q 2600 291 2808 84 
Q 3016 -122 3016 -500 
Q 3016 -781 2778 -967 
Q 2541 -1153 2211 -1236 
Q 1881 -1319 1600 -1319 
Q 1316 -1319 984 -1236 
Q 653 -1153 415 -967 
Q 178 -781 178 -500 
z
M 538 -500 
Q 538 -716 713 -861 
Q 888 -1006 1134 -1076 
Q 1381 -1147 1600 -1147 
Q 1816 -1147 2062 -1076 
Q 2309 -1006 2482 -861 
Q 2656 -716 2656 -500 
Q 2656 -166 2350 -67 
Q 2044 31 1606 31 
L 1081 31 
Q 934 31 811 -39 
Q 688 -109 613 -236 
Q 538 -363 538 -500 
z
M 1422 1113 
Q 1966 1113 1966 1888 
Q 1966 2222 1850 2439 
Q 1734 2656 1422 2656 
Q 1109 2656 993 2439 
Q 878 2222 878 1888 
Q 878 1675 922 1503 
Q 966 1331 1084 1222 
Q 1203 1113 1422 1113 
z
" transform="scale(0.015625)"/>
        <path id="Cmr10-6f" d="M 1600 -72 
Q 1216 -72 887 123 
Q 559 319 368 647 
Q 178 975 178 1363 
Q 178 1656 283 1928 
Q 388 2200 583 2414 
Q 778 2628 1037 2748 
Q 1297 2869 1600 2869 
Q 1994 2869 2317 2661 
Q 2641 2453 2828 2104 
Q 3016 1756 3016 1363 
Q 3016 978 2825 648 
Q 2634 319 2307 123 
Q 1981 -72 1600 -72 
z
M 1600 116 
Q 2113 116 2284 487 
Q 2456 859 2456 1434 
Q 2456 1756 2422 1967 
Q 2388 2178 2272 2350 
Q 2200 2456 2089 2536 
Q 1978 2616 1854 2658 
Q 1731 2700 1600 2700 
Q 1400 2700 1220 2609 
Q 1041 2519 922 2350 
Q 803 2169 770 1951 
Q 738 1734 738 1434 
Q 738 1075 800 789 
Q 863 503 1052 309 
Q 1241 116 1600 116 
z
" transform="scale(0.015625)"/>
       </defs>
       <use xlink:href="#Cmr10-55"/>
       <use xlink:href="#Cmr10-6e" transform="translate(75 0)"/>
       <use xlink:href="#Cmr10-69" transform="translate(130.517578 0)"/>
       <use xlink:href="#Cmr10-74" transform="translate(158.203125 0)"/>
       <use xlink:href="#Cmr10-65" transform="translate(197.021484 0)"/>
       <use xlink:href="#Cmr10-64" transform="translate(241.40625 0)"/>
       <use xlink:href="#Cmr10-20" transform="translate(296.923828 0)"/>
       <use xlink:href="#Cmr10-4b" transform="translate(330.224609 0)"/>
       <use xlink:href="#Cmr10-69" transform="translate(407.910156 0)"/>
       <use xlink:href="#Cmr10-6e" transform="translate(435.595703 0)"/>
       <use xlink:href="#Cmr10-67" transform="translate(491.113281 0)"/>
       <use xlink:href="#Cmr10-64" transform="translate(541.113281 0)"/>
       <use xlink:href="#Cmr10-6f" transform="translate(596.630859 0)"/>
       <use xlink:href="#Cmr10-6d" transform="translate(646.630859 0)"/>
      </g>
     </g>
    </g>
    <g id="xtick_3">
     <g id="line2d_5">
      <g>
       <use xlink:href="#m0a42b04fdf" x="281.48645" y="311.454375" style="stroke: #000000; stroke-width: 0.5"/>
      </g>
     </g>
     <g id="line2d_6">
      <g>
       <use xlink:href="#m7ffb63e8e5" x="281.48645" y="18.189375" style="stroke: #000000; stroke-width: 0.5"/>
      </g>
     </g>
     <g id="text_3">
      <!-- United States -->
      <g transform="translate(245.657075 323.28125) scale(0.12 -0.12)">
       <defs>
        <path id="Cmr10-53" d="M 359 -91 
L 359 1403 
Q 359 1453 416 1453 
L 494 1453 
Q 513 1453 528 1437 
Q 544 1422 544 1403 
Q 544 775 933 429 
Q 1322 84 1953 84 
Q 2175 84 2362 212 
Q 2550 341 2654 548 
Q 2759 756 2759 978 
Q 2759 1172 2681 1355 
Q 2603 1538 2456 1672 
Q 2309 1806 2125 1850 
L 1294 2053 
Q 881 2163 620 2502 
Q 359 2841 359 3263 
Q 359 3594 528 3884 
Q 697 4175 983 4344 
Q 1269 4513 1600 4513 
Q 2241 4513 2619 4078 
L 2881 4494 
Q 2900 4513 2925 4513 
L 2969 4513 
Q 2988 4513 3005 4498 
Q 3022 4484 3022 4459 
L 3022 2975 
Q 3022 2919 2969 2919 
L 2894 2919 
Q 2834 2919 2834 2975 
Q 2834 3138 2779 3331 
Q 2725 3525 2628 3703 
Q 2531 3881 2419 3994 
Q 2109 4306 1600 4306 
Q 1381 4306 1197 4195 
Q 1013 4084 903 3893 
Q 794 3703 794 3494 
Q 794 3219 964 2995 
Q 1134 2772 1409 2700 
L 2241 2497 
Q 2447 2447 2630 2317 
Q 2813 2188 2934 2016 
Q 3056 1844 3125 1633 
Q 3194 1422 3194 1197 
Q 3194 850 3034 542 
Q 2875 234 2586 46 
Q 2297 -141 1953 -141 
Q 1741 -141 1519 -94 
Q 1297 -47 1109 50 
Q 922 147 769 300 
L 500 -122 
Q 481 -141 453 -141 
L 416 -141 
Q 359 -141 359 -91 
z
" transform="scale(0.015625)"/>
        <path id="Cmr10-73" d="M 213 -19 
L 213 1025 
Q 213 1075 269 1075 
L 347 1075 
Q 384 1075 397 1025 
Q 575 97 1259 97 
Q 1563 97 1767 234 
Q 1972 372 1972 659 
Q 1972 866 1812 1011 
Q 1653 1156 1434 1209 
L 1006 1294 
Q 791 1341 614 1437 
Q 438 1534 325 1695 
Q 213 1856 213 2069 
Q 213 2350 361 2529 
Q 509 2709 746 2789 
Q 984 2869 1259 2869 
Q 1588 2869 1831 2694 
L 2016 2853 
Q 2016 2869 2047 2869 
L 2094 2869 
Q 2113 2869 2128 2851 
Q 2144 2834 2144 2816 
L 2144 1978 
Q 2144 1919 2094 1919 
L 2016 1919 
Q 1959 1919 1959 1978 
Q 1959 2313 1773 2516 
Q 1588 2719 1253 2719 
Q 966 2719 755 2612 
Q 544 2506 544 2247 
Q 544 2069 695 1955 
Q 847 1841 1050 1791 
L 1484 1709 
Q 1703 1659 1892 1540 
Q 2081 1422 2192 1240 
Q 2303 1059 2303 831 
Q 2303 600 2223 429 
Q 2144 259 2001 146 
Q 1859 34 1665 -19 
Q 1472 -72 1259 -72 
Q 859 -72 575 197 
L 341 -56 
Q 341 -72 306 -72 
L 269 -72 
Q 213 -72 213 -19 
z
" transform="scale(0.015625)"/>
       </defs>
       <use xlink:href="#Cmr10-55"/>
       <use xlink:href="#Cmr10-6e" transform="translate(75 0)"/>
       <use xlink:href="#Cmr10-69" transform="translate(130.517578 0)"/>
       <use xlink:href="#Cmr10-74" transform="translate(158.203125 0)"/>
       <use xlink:href="#Cmr10-65" transform="translate(197.021484 0)"/>
       <use xlink:href="#Cmr10-64" transform="translate(241.40625 0)"/>
       <use xlink:href="#Cmr10-20" transform="translate(296.923828 0)"/>
       <use xlink:href="#Cmr10-53" transform="translate(330.224609 0)"/>
       <use xlink:href="#Cmr10-74" transform="translate(385.742188 0)"/>
       <use xlink:href="#Cmr10-61" transform="translate(424.560547 0)"/>
       <use xlink:href="#Cmr10-74" transform="translate(474.560547 0)"/>
       <use xlink:href="#Cmr10-65" transform="translate(513.378906 0)"/>
       <use xlink:href="#Cmr10-73" transform="translate(557.763672 0)"/>
      </g>
     </g>
    </g>
    <g id="xtick_4">
     <g id="line2d_7">
      <g>
       <use xlink:href="#m0a42b04fdf" x="366.888941" y="311.454375" style="stroke: #000000; stroke-width: 0.5"/>
      </g>
     </g>
     <g id="line2d_8">
      <g>
       <use xlink:href="#m7ffb63e8e5" x="366.888941" y="18.189375" style="stroke: #000000; stroke-width: 0.5"/>
      </g>
     </g>
     <g id="text_4">
      <!-- Italy -->
      <g transform="translate(354.573003 323.28125) scale(0.12 -0.12)">
       <defs>
        <path id="Cmr10-49" d="M 166 0 
L 166 225 
Q 856 225 856 428 
L 856 3944 
Q 856 4147 166 4147 
L 166 4372 
L 2144 4372 
L 2144 4147 
Q 1453 4147 1453 3944 
L 1453 428 
Q 1453 225 2144 225 
L 2144 0 
L 166 0 
z
" transform="scale(0.015625)"/>
        <path id="Cmr10-6c" d="M 197 0 
L 197 225 
Q 416 225 556 259 
Q 697 294 697 428 
L 697 3788 
Q 697 3959 645 4036 
Q 594 4113 497 4130 
Q 400 4147 197 4147 
L 197 4372 
L 1147 4441 
L 1147 428 
Q 1147 294 1287 259 
Q 1428 225 1644 225 
L 1644 0 
L 197 0 
z
" transform="scale(0.015625)"/>
       </defs>
       <use xlink:href="#Cmr10-49"/>
       <use xlink:href="#Cmr10-74" transform="translate(36.083984 0)"/>
       <use xlink:href="#Cmr10-61" transform="translate(74.902344 0)"/>
       <use xlink:href="#Cmr10-6c" transform="translate(124.902344 0)"/>
       <use xlink:href="#Cmr10-79" transform="translate(152.587891 0)"/>
      </g>
     </g>
    </g>
    <g id="xtick_5">
     <g id="line2d_9">
      <g>
       <use xlink:href="#m0a42b04fdf" x="452.291431" y="311.454375" style="stroke: #000000; stroke-width: 0.5"/>
      </g>
     </g>
     <g id="line2d_10">
      <g>
       <use xlink:href="#m7ffb63e8e5" x="452.291431" y="18.189375" style="stroke: #000000; stroke-width: 0.5"/>
      </g>
     </g>
     <g id="text_5">
      <!-- Spain -->
      <g transform="translate(437.637369 323.41625) scale(0.12 -0.12)">
       <defs>
        <path id="Cmr10-70" d="M 166 -1241 
L 166 -1019 
Q 384 -1019 525 -981 
Q 666 -944 666 -813 
L 666 2272 
Q 666 2447 541 2490 
Q 416 2534 166 2534 
L 166 2759 
L 1113 2828 
L 1113 2431 
Q 1288 2625 1520 2726 
Q 1753 2828 2016 2828 
Q 2394 2828 2697 2623 
Q 3000 2419 3170 2086 
Q 3341 1753 3341 1381 
Q 3341 994 3152 659 
Q 2963 325 2636 126 
Q 2309 -72 1919 -72 
Q 1453 -72 1131 306 
L 1131 -813 
Q 1131 -944 1273 -981 
Q 1416 -1019 1631 -1019 
L 1631 -1241 
L 166 -1241 
z
M 1131 622 
Q 1244 394 1444 245 
Q 1644 97 1881 97 
Q 2103 97 2273 215 
Q 2444 334 2559 534 
Q 2675 734 2729 954 
Q 2784 1175 2784 1381 
Q 2784 1638 2692 1936 
Q 2600 2234 2411 2439 
Q 2222 2644 1953 2644 
Q 1694 2644 1476 2511 
Q 1259 2378 1131 2150 
L 1131 622 
z
" transform="scale(0.015625)"/>
       </defs>
       <use xlink:href="#Cmr10-53"/>
       <use xlink:href="#Cmr10-70" transform="translate(55.517578 0)"/>
       <use xlink:href="#Cmr10-61" transform="translate(111.035156 0)"/>
       <use xlink:href="#Cmr10-69" transform="translate(161.035156 0)"/>
       <use xlink:href="#Cmr10-6e" transform="translate(188.720703 0)"/>
      </g>
     </g>
    </g>
    <g id="xtick_6">
     <g id="line2d_11">
      <g>
       <use xlink:href="#m0a42b04fdf" x="537.693922" y="311.454375" style="stroke: #000000; stroke-width: 0.5"/>
      </g>
     </g>
     <g id="line2d_12">
      <g>
       <use xlink:href="#m7ffb63e8e5" x="537.693922" y="18.189375" style="stroke: #000000; stroke-width: 0.5"/>
      </g>
     </g>
     <g id="text_6">
      <!-- France -->
      <g transform="translate(519.778297 323.28125) scale(0.12 -0.12)">
       <defs>
        <path id="Cmr10-46" d="M 197 0 
L 197 225 
Q 856 225 856 428 
L 856 3944 
Q 856 4147 197 4147 
L 197 4372 
L 3725 4372 
L 3903 2906 
L 3719 2906 
Q 3675 3309 3601 3542 
Q 3528 3775 3387 3908 
Q 3247 4041 3011 4094 
Q 2775 4147 2363 4147 
L 1778 4147 
Q 1663 4147 1598 4137 
Q 1534 4128 1493 4083 
Q 1453 4038 1453 3944 
L 1453 2297 
L 1906 2297 
Q 2234 2297 2387 2355 
Q 2541 2413 2598 2566 
Q 2656 2719 2656 3047 
L 2841 3047 
L 2841 1325 
L 2656 1325 
Q 2656 1653 2598 1806 
Q 2541 1959 2387 2017 
Q 2234 2075 1906 2075 
L 1453 2075 
L 1453 428 
Q 1453 225 2272 225 
L 2272 0 
L 197 0 
z
" transform="scale(0.015625)"/>
        <path id="Cmr10-63" d="M 1594 -72 
Q 1206 -72 890 129 
Q 575 331 394 667 
Q 213 1003 213 1381 
Q 213 1759 392 2106 
Q 572 2453 889 2661 
Q 1206 2869 1594 2869 
Q 1969 2869 2276 2722 
Q 2584 2575 2584 2241 
Q 2584 2116 2495 2023 
Q 2406 1931 2278 1931 
Q 2150 1931 2061 2023 
Q 1972 2116 1972 2241 
Q 1972 2353 2044 2436 
Q 2116 2519 2222 2541 
Q 2000 2681 1600 2681 
Q 1294 2681 1106 2478 
Q 919 2275 844 1975 
Q 769 1675 769 1381 
Q 769 1072 861 783 
Q 953 494 1158 305 
Q 1363 116 1672 116 
Q 1975 116 2187 302 
Q 2400 488 2478 788 
Q 2478 825 2528 825 
L 2606 825 
Q 2625 825 2640 808 
Q 2656 791 2656 769 
L 2656 750 
Q 2559 372 2271 150 
Q 1984 -72 1594 -72 
z
" transform="scale(0.015625)"/>
       </defs>
       <use xlink:href="#Cmr10-46"/>
       <use xlink:href="#Cmr10-72" transform="translate(65.185547 0)"/>
       <use xlink:href="#Cmr10-61" transform="translate(104.296875 0)"/>
       <use xlink:href="#Cmr10-6e" transform="translate(154.296875 0)"/>
       <use xlink:href="#Cmr10-63" transform="translate(209.814453 0)"/>
       <use xlink:href="#Cmr10-65" transform="translate(254.199219 0)"/>
      </g>
     </g>
    </g>
    <g id="xtick_7">
     <g id="line2d_13">
      <defs>
       <path id="m22245183e3" d="M 0 0 
L 0 -1.5 
" style="stroke: #000000; stroke-width: 0.5"/>
      </defs>
      <g>
       <use xlink:href="#m22245183e3" x="59.439974" y="311.454375" style="stroke: #000000; stroke-width: 0.5"/>
      </g>
     </g>
     <g id="line2d_14">
      <defs>
       <path id="mb12a5a2e82" d="M 0 0 
L 0 1.5 
" style="stroke: #000000; stroke-width: 0.5"/>
      </defs>
      <g>
       <use xlink:href="#mb12a5a2e82" x="59.439974" y="18.189375" style="stroke: #000000; stroke-width: 0.5"/>
      </g>
     </g>
    </g>
    <g id="xtick_8">
     <g id="line2d_15">
      <g>
       <use xlink:href="#m22245183e3" x="76.520472" y="311.454375" style="stroke: #000000; stroke-width: 0.5"/>
      </g>
     </g>
     <g id="line2d_16">
      <g>
       <use xlink:href="#mb12a5a2e82" x="76.520472" y="18.189375" style="stroke: #000000; stroke-width: 0.5"/>
      </g>
     </g>
    </g>
    <g id="xtick_9">
     <g id="line2d_17">
      <g>
       <use xlink:href="#m22245183e3" x="93.60097" y="311.454375" style="stroke: #000000; stroke-width: 0.5"/>
      </g>
     </g>
     <g id="line2d_18">
      <g>
       <use xlink:href="#mb12a5a2e82" x="93.60097" y="18.189375" style="stroke: #000000; stroke-width: 0.5"/>
      </g>
     </g>
    </g>
    <g id="xtick_10">
     <g id="line2d_19">
      <g>
       <use xlink:href="#m22245183e3" x="127.761967" y="311.454375" style="stroke: #000000; stroke-width: 0.5"/>
      </g>
     </g>
     <g id="line2d_20">
      <g>
       <use xlink:href="#mb12a5a2e82" x="127.761967" y="18.189375" style="stroke: #000000; stroke-width: 0.5"/>
      </g>
     </g>
    </g>
    <g id="xtick_11">
     <g id="line2d_21">
      <g>
       <use xlink:href="#m22245183e3" x="144.842465" y="311.454375" style="stroke: #000000; stroke-width: 0.5"/>
      </g>
     </g>
     <g id="line2d_22">
      <g>
       <use xlink:href="#mb12a5a2e82" x="144.842465" y="18.189375" style="stroke: #000000; stroke-width: 0.5"/>
      </g>
     </g>
    </g>
    <g id="xtick_12">
     <g id="line2d_23">
      <g>
       <use xlink:href="#m22245183e3" x="161.922963" y="311.454375" style="stroke: #000000; stroke-width: 0.5"/>
      </g>
     </g>
     <g id="line2d_24">
      <g>
       <use xlink:href="#mb12a5a2e82" x="161.922963" y="18.189375" style="stroke: #000000; stroke-width: 0.5"/>
      </g>
     </g>
    </g>
    <g id="xtick_13">
     <g id="line2d_25">
      <g>
       <use xlink:href="#m22245183e3" x="179.003461" y="311.454375" style="stroke: #000000; stroke-width: 0.5"/>
      </g>
     </g>
     <g id="line2d_26">
      <g>
       <use xlink:href="#mb12a5a2e82" x="179.003461" y="18.189375" style="stroke: #000000; stroke-width: 0.5"/>
      </g>
     </g>
    </g>
    <g id="xtick_14">
     <g id="line2d_27">
      <g>
       <use xlink:href="#m22245183e3" x="213.164457" y="311.454375" style="stroke: #000000; stroke-width: 0.5"/>
      </g>
     </g>
     <g id="line2d_28">
      <g>
       <use xlink:href="#mb12a5a2e82" x="213.164457" y="18.189375" style="stroke: #000000; stroke-width: 0.5"/>
      </g>
     </g>
    </g>
    <g id="xtick_15">
     <g id="line2d_29">
      <g>
       <use xlink:href="#m22245183e3" x="230.244956" y="311.454375" style="stroke: #000000; stroke-width: 0.5"/>
      </g>
     </g>
     <g id="line2d_30">
      <g>
       <use xlink:href="#mb12a5a2e82" x="230.244956" y="18.189375" style="stroke: #000000; stroke-width: 0.5"/>
      </g>
     </g>
    </g>
    <g id="xtick_16">
     <g id="line2d_31">
      <g>
       <use xlink:href="#m22245183e3" x="247.325454" y="311.454375" style="stroke: #000000; stroke-width: 0.5"/>
      </g>
     </g>
     <g id="line2d_32">
      <g>
       <use xlink:href="#mb12a5a2e82" x="247.325454" y="18.189375" style="stroke: #000000; stroke-width: 0.5"/>
      </g>
     </g>
    </g>
    <g id="xtick_17">
     <g id="line2d_33">
      <g>
       <use xlink:href="#m22245183e3" x="264.405952" y="311.454375" style="stroke: #000000; stroke-width: 0.5"/>
      </g>
     </g>
     <g id="line2d_34">
      <g>
       <use xlink:href="#mb12a5a2e82" x="264.405952" y="18.189375" style="stroke: #000000; stroke-width: 0.5"/>
      </g>
     </g>
    </g>
    <g id="xtick_18">
     <g id="line2d_35">
      <g>
       <use xlink:href="#m22245183e3" x="298.566948" y="311.454375" style="stroke: #000000; stroke-width: 0.5"/>
      </g>
     </g>
     <g id="line2d_36">
      <g>
       <use xlink:href="#mb12a5a2e82" x="298.566948" y="18.189375" style="stroke: #000000; stroke-width: 0.5"/>
      </g>
     </g>
    </g>
    <g id="xtick_19">
     <g id="line2d_37">
      <g>
       <use xlink:href="#m22245183e3" x="315.647446" y="311.454375" style="stroke: #000000; stroke-width: 0.5"/>
      </g>
     </g>
     <g id="line2d_38">
      <g>
       <use xlink:href="#mb12a5a2e82" x="315.647446" y="18.189375" style="stroke: #000000; stroke-width: 0.5"/>
      </g>
     </g>
    </g>
    <g id="xtick_20">
     <g id="line2d_39">
      <g>
       <use xlink:href="#m22245183e3" x="332.727944" y="311.454375" style="stroke: #000000; stroke-width: 0.5"/>
      </g>
     </g>
     <g id="line2d_40">
      <g>
       <use xlink:href="#mb12a5a2e82" x="332.727944" y="18.189375" style="stroke: #000000; stroke-width: 0.5"/>
      </g>
     </g>
    </g>
    <g id="xtick_21">
     <g id="line2d_41">
      <g>
       <use xlink:href="#m22245183e3" x="349.808443" y="311.454375" style="stroke: #000000; stroke-width: 0.5"/>
      </g>
     </g>
     <g id="line2d_42">
      <g>
       <use xlink:href="#mb12a5a2e82" x="349.808443" y="18.189375" style="stroke: #000000; stroke-width: 0.5"/>
      </g>
     </g>
    </g>
    <g id="xtick_22">
     <g id="line2d_43">
      <g>
       <use xlink:href="#m22245183e3" x="383.969439" y="311.454375" style="stroke: #000000; stroke-width: 0.5"/>
      </g>
     </g>
     <g id="line2d_44">
      <g>
       <use xlink:href="#mb12a5a2e82" x="383.969439" y="18.189375" style="stroke: #000000; stroke-width: 0.5"/>
      </g>
     </g>
    </g>
    <g id="xtick_23">
     <g id="line2d_45">
      <g>
       <use xlink:href="#m22245183e3" x="401.049937" y="311.454375" style="stroke: #000000; stroke-width: 0.5"/>
      </g>
     </g>
     <g id="line2d_46">
      <g>
       <use xlink:href="#mb12a5a2e82" x="401.049937" y="18.189375" style="stroke: #000000; stroke-width: 0.5"/>
      </g>
     </g>
    </g>
    <g id="xtick_24">
     <g id="line2d_47">
      <g>
       <use xlink:href="#m22245183e3" x="418.130435" y="311.454375" style="stroke: #000000; stroke-width: 0.5"/>
      </g>
     </g>
     <g id="line2d_48">
      <g>
       <use xlink:href="#mb12a5a2e82" x="418.130435" y="18.189375" style="stroke: #000000; stroke-width: 0.5"/>
      </g>
     </g>
    </g>
    <g id="xtick_25">
     <g id="line2d_49">
      <g>
       <use xlink:href="#m22245183e3" x="435.210933" y="311.454375" style="stroke: #000000; stroke-width: 0.5"/>
      </g>
     </g>
     <g id="line2d_50">
      <g>
       <use xlink:href="#mb12a5a2e82" x="435.210933" y="18.189375" style="stroke: #000000; stroke-width: 0.5"/>
      </g>
     </g>
    </g>
    <g id="xtick_26">
     <g id="line2d_51">
      <g>
       <use xlink:href="#m22245183e3" x="469.371929" y="311.454375" style="stroke: #000000; stroke-width: 0.5"/>
      </g>
     </g>
     <g id="line2d_52">
      <g>
       <use xlink:href="#mb12a5a2e82" x="469.371929" y="18.189375" style="stroke: #000000; stroke-width: 0.5"/>
      </g>
     </g>
    </g>
    <g id="xtick_27">
     <g id="line2d_53">
      <g>
       <use xlink:href="#m22245183e3" x="486.452428" y="311.454375" style="stroke: #000000; stroke-width: 0.5"/>
      </g>
     </g>
     <g id="line2d_54">
      <g>
       <use xlink:href="#mb12a5a2e82" x="486.452428" y="18.189375" style="stroke: #000000; stroke-width: 0.5"/>
      </g>
     </g>
    </g>
    <g id="xtick_28">
     <g id="line2d_55">
      <g>
       <use xlink:href="#m22245183e3" x="503.532926" y="311.454375" style="stroke: #000000; stroke-width: 0.5"/>
      </g>
     </g>
     <g id="line2d_56">
      <g>
       <use xlink:href="#mb12a5a2e82" x="503.532926" y="18.189375" style="stroke: #000000; stroke-width: 0.5"/>
      </g>
     </g>
    </g>
    <g id="xtick_29">
     <g id="line2d_57">
      <g>
       <use xlink:href="#m22245183e3" x="520.613424" y="311.454375" style="stroke: #000000; stroke-width: 0.5"/>
      </g>
     </g>
     <g id="line2d_58">
      <g>
       <use xlink:href="#mb12a5a2e82" x="520.613424" y="18.189375" style="stroke: #000000; stroke-width: 0.5"/>
      </g>
     </g>
    </g>
    <g id="xtick_30">
     <g id="line2d_59">
      <g>
       <use xlink:href="#m22245183e3" x="554.77442" y="311.454375" style="stroke: #000000; stroke-width: 0.5"/>
      </g>
     </g>
     <g id="line2d_60">
      <g>
       <use xlink:href="#mb12a5a2e82" x="554.77442" y="18.189375" style="stroke: #000000; stroke-width: 0.5"/>
      </g>
     </g>
    </g>
    <g id="xtick_31">
     <g id="line2d_61">
      <g>
       <use xlink:href="#m22245183e3" x="571.854918" y="311.454375" style="stroke: #000000; stroke-width: 0.5"/>
      </g>
     </g>
     <g id="line2d_62">
      <g>
       <use xlink:href="#mb12a5a2e82" x="571.854918" y="18.189375" style="stroke: #000000; stroke-width: 0.5"/>
      </g>
     </g>
    </g>
    <g id="xtick_32">
     <g id="line2d_63">
      <g>
       <use xlink:href="#m22245183e3" x="588.935416" y="311.454375" style="stroke: #000000; stroke-width: 0.5"/>
      </g>
     </g>
     <g id="line2d_64">
      <g>
       <use xlink:href="#mb12a5a2e82" x="588.935416" y="18.189375" style="stroke: #000000; stroke-width: 0.5"/>
      </g>
     </g>
    </g>
    <g id="text_7">
     <!-- Country -->
     <g transform="translate(302.356133 338.34) scale(0.12 -0.12)">
      <defs>
       <path id="Cmr10-43" d="M 1459 684 
Q 1678 406 2006 245 
Q 2334 84 2688 84 
Q 2984 84 3237 201 
Q 3491 319 3680 528 
Q 3869 738 3970 1003 
Q 4072 1269 4072 1563 
Q 4072 1613 4128 1613 
L 4206 1613 
Q 4256 1613 4256 1550 
Q 4256 1216 4128 905 
Q 4000 594 3765 358 
Q 3531 122 3226 -9 
Q 2922 -141 2591 -141 
Q 2131 -141 1720 45 
Q 1309 231 1004 554 
Q 700 878 529 1303 
Q 359 1728 359 2188 
Q 359 2647 529 3072 
Q 700 3497 1004 3822 
Q 1309 4147 1720 4330 
Q 2131 4513 2591 4513 
Q 2919 4513 3219 4370 
Q 3519 4228 3744 3969 
L 4116 4494 
Q 4153 4513 4159 4513 
L 4206 4513 
Q 4225 4513 4240 4497 
Q 4256 4481 4256 4459 
L 4256 2731 
Q 4256 2675 4206 2675 
L 4091 2675 
Q 4031 2675 4031 2731 
Q 4031 2916 3957 3144 
Q 3884 3372 3770 3576 
Q 3656 3781 3506 3938 
Q 3147 4288 2681 4288 
Q 2328 4288 2004 4128 
Q 1681 3969 1459 3688 
Q 1225 3388 1134 3005 
Q 1044 2622 1044 2188 
Q 1044 1753 1134 1368 
Q 1225 984 1459 684 
z
" transform="scale(0.015625)"/>
       <path id="Cmr10-75" d="M 691 763 
L 691 2175 
Q 691 2347 639 2423 
Q 588 2500 491 2517 
Q 394 2534 191 2534 
L 191 2759 
L 1159 2828 
L 1159 763 
Q 1159 513 1195 373 
Q 1231 234 1348 165 
Q 1466 97 1722 97 
Q 2066 97 2269 384 
Q 2472 672 2472 1038 
L 2472 2175 
Q 2472 2347 2419 2423 
Q 2366 2500 2270 2517 
Q 2175 2534 1972 2534 
L 1972 2759 
L 2938 2828 
L 2938 581 
Q 2938 413 2989 336 
Q 3041 259 3137 242 
Q 3234 225 3438 225 
L 3438 0 
L 2491 -72 
L 2491 469 
Q 2372 228 2159 78 
Q 1947 -72 1691 -72 
Q 1231 -72 961 123 
Q 691 319 691 763 
z
" transform="scale(0.015625)"/>
      </defs>
      <use xlink:href="#Cmr10-43"/>
      <use xlink:href="#Cmr10-6f" transform="translate(72.216797 0)"/>
      <use xlink:href="#Cmr10-75" transform="translate(122.216797 0)"/>
      <use xlink:href="#Cmr10-6e" transform="translate(177.734375 0)"/>
      <use xlink:href="#Cmr10-74" transform="translate(233.251953 0)"/>
      <use xlink:href="#Cmr10-72" transform="translate(272.070312 0)"/>
      <use xlink:href="#Cmr10-79" transform="translate(311.181641 0)"/>
     </g>
    </g>
   </g>
   <g id="matplotlib.axis_2">
    <g id="ytick_1">
     <g id="line2d_65">
      <defs>
       <path id="m4f898fb7fa" d="M 0 0 
L 3 0 
" style="stroke: #000000; stroke-width: 0.5"/>
      </defs>
      <g>
       <use xlink:href="#m4f898fb7fa" x="51.75375" y="252.801375" style="stroke: #000000; stroke-width: 0.5"/>
      </g>
     </g>
     <g id="line2d_66">
      <defs>
       <path id="m0df23120fb" d="M 0 0 
L -3 0 
" style="stroke: #000000; stroke-width: 0.5"/>
      </defs>
      <g>
       <use xlink:href="#m0df23120fb" x="596.621641" y="252.801375" style="stroke: #000000; stroke-width: 0.5"/>
      </g>
     </g>
     <g id="text_8">
      <!-- $\mathdefault{50000}$ -->
      <g transform="translate(23.25375 256.270906) scale(0.1 -0.1)">
       <defs>
        <path id="Cmr10-35" d="M 556 728 
Q 622 541 758 387 
Q 894 234 1080 148 
Q 1266 63 1466 63 
Q 1928 63 2103 422 
Q 2278 781 2278 1294 
Q 2278 1516 2270 1667 
Q 2263 1819 2228 1959 
Q 2169 2184 2020 2353 
Q 1872 2522 1656 2522 
Q 1441 2522 1286 2456 
Q 1131 2391 1034 2303 
Q 938 2216 863 2119 
Q 788 2022 769 2016 
L 697 2016 
Q 681 2016 657 2036 
Q 634 2056 634 2075 
L 634 4213 
Q 634 4228 654 4245 
Q 675 4263 697 4263 
L 716 4263 
Q 1147 4056 1631 4056 
Q 2106 4056 2547 4263 
L 2566 4263 
Q 2588 4263 2606 4247 
Q 2625 4231 2625 4213 
L 2625 4153 
Q 2625 4122 2613 4122 
Q 2394 3831 2064 3668 
Q 1734 3506 1381 3506 
Q 1125 3506 856 3578 
L 856 2369 
Q 1069 2541 1236 2614 
Q 1403 2688 1663 2688 
Q 2016 2688 2295 2484 
Q 2575 2281 2725 1954 
Q 2875 1628 2875 1288 
Q 2875 903 2686 575 
Q 2497 247 2172 53 
Q 1847 -141 1466 -141 
Q 1150 -141 886 21 
Q 622 184 470 459 
Q 319 734 319 1044 
Q 319 1188 412 1278 
Q 506 1369 647 1369 
Q 788 1369 883 1276 
Q 978 1184 978 1044 
Q 978 906 883 811 
Q 788 716 647 716 
Q 625 716 597 720 
Q 569 725 556 728 
z
" transform="scale(0.015625)"/>
        <path id="Cmr10-30" d="M 1600 -141 
Q 816 -141 533 504 
Q 250 1150 250 2041 
Q 250 2597 351 3087 
Q 453 3578 754 3920 
Q 1056 4263 1600 4263 
Q 2022 4263 2290 4056 
Q 2559 3850 2700 3523 
Q 2841 3197 2892 2823 
Q 2944 2450 2944 2041 
Q 2944 1491 2842 1011 
Q 2741 531 2444 195 
Q 2147 -141 1600 -141 
z
M 1600 25 
Q 1956 25 2131 390 
Q 2306 756 2347 1200 
Q 2388 1644 2388 2144 
Q 2388 2625 2347 3031 
Q 2306 3438 2132 3767 
Q 1959 4097 1600 4097 
Q 1238 4097 1063 3765 
Q 888 3434 847 3029 
Q 806 2625 806 2144 
Q 806 1788 823 1472 
Q 841 1156 916 820 
Q 991 484 1158 254 
Q 1325 25 1600 25 
z
" transform="scale(0.015625)"/>
       </defs>
       <use xlink:href="#Cmr10-35" transform="translate(0 0.390625)"/>
       <use xlink:href="#Cmr10-30" transform="translate(50 0.390625)"/>
       <use xlink:href="#Cmr10-30" transform="translate(100 0.390625)"/>
       <use xlink:href="#Cmr10-30" transform="translate(150 0.390625)"/>
       <use xlink:href="#Cmr10-30" transform="translate(200 0.390625)"/>
      </g>
     </g>
    </g>
    <g id="ytick_2">
     <g id="line2d_67">
      <g>
       <use xlink:href="#m4f898fb7fa" x="51.75375" y="194.148375" style="stroke: #000000; stroke-width: 0.5"/>
      </g>
     </g>
     <g id="line2d_68">
      <g>
       <use xlink:href="#m0df23120fb" x="596.621641" y="194.148375" style="stroke: #000000; stroke-width: 0.5"/>
      </g>
     </g>
     <g id="text_9">
      <!-- $\mathdefault{100000}$ -->
      <g transform="translate(18.25375 197.617906) scale(0.1 -0.1)">
       <defs>
        <path id="Cmr10-31" d="M 594 0 
L 594 225 
Q 1394 225 1394 428 
L 1394 3788 
Q 1063 3628 556 3628 
L 556 3853 
Q 1341 3853 1741 4263 
L 1831 4263 
Q 1853 4263 1873 4245 
Q 1894 4228 1894 4206 
L 1894 428 
Q 1894 225 2694 225 
L 2694 0 
L 594 0 
z
" transform="scale(0.015625)"/>
       </defs>
       <use xlink:href="#Cmr10-31" transform="translate(0 0.390625)"/>
       <use xlink:href="#Cmr10-30" transform="translate(50 0.390625)"/>
       <use xlink:href="#Cmr10-30" transform="translate(100 0.390625)"/>
       <use xlink:href="#Cmr10-30" transform="translate(150 0.390625)"/>
       <use xlink:href="#Cmr10-30" transform="translate(200 0.390625)"/>
       <use xlink:href="#Cmr10-30" transform="translate(250 0.390625)"/>
      </g>
     </g>
    </g>
    <g id="ytick_3">
     <g id="line2d_69">
      <g>
       <use xlink:href="#m4f898fb7fa" x="51.75375" y="135.495375" style="stroke: #000000; stroke-width: 0.5"/>
      </g>
     </g>
     <g id="line2d_70">
      <g>
       <use xlink:href="#m0df23120fb" x="596.621641" y="135.495375" style="stroke: #000000; stroke-width: 0.5"/>
      </g>
     </g>
     <g id="text_10">
      <!-- $\mathdefault{150000}$ -->
      <g transform="translate(18.25375 138.964906) scale(0.1 -0.1)">
       <use xlink:href="#Cmr10-31" transform="translate(0 0.390625)"/>
       <use xlink:href="#Cmr10-35" transform="translate(50 0.390625)"/>
       <use xlink:href="#Cmr10-30" transform="translate(100 0.390625)"/>
       <use xlink:href="#Cmr10-30" transform="translate(150 0.390625)"/>
       <use xlink:href="#Cmr10-30" transform="translate(200 0.390625)"/>
       <use xlink:href="#Cmr10-30" transform="translate(250 0.390625)"/>
      </g>
     </g>
    </g>
    <g id="ytick_4">
     <g id="line2d_71">
      <g>
       <use xlink:href="#m4f898fb7fa" x="51.75375" y="76.842375" style="stroke: #000000; stroke-width: 0.5"/>
      </g>
     </g>
     <g id="line2d_72">
      <g>
       <use xlink:href="#m0df23120fb" x="596.621641" y="76.842375" style="stroke: #000000; stroke-width: 0.5"/>
      </g>
     </g>
     <g id="text_11">
      <!-- $\mathdefault{200000}$ -->
      <g transform="translate(18.25375 80.311906) scale(0.1 -0.1)">
       <defs>
        <path id="Cmr10-32" d="M 319 0 
L 319 172 
Q 319 188 331 206 
L 1325 1306 
Q 1550 1550 1690 1715 
Q 1831 1881 1968 2097 
Q 2106 2313 2186 2536 
Q 2266 2759 2266 3009 
Q 2266 3272 2169 3511 
Q 2072 3750 1880 3894 
Q 1688 4038 1416 4038 
Q 1138 4038 916 3870 
Q 694 3703 603 3438 
Q 628 3444 672 3444 
Q 816 3444 917 3347 
Q 1019 3250 1019 3097 
Q 1019 2950 917 2848 
Q 816 2747 672 2747 
Q 522 2747 420 2851 
Q 319 2956 319 3097 
Q 319 3338 409 3548 
Q 500 3759 670 3923 
Q 841 4088 1055 4175 
Q 1269 4263 1509 4263 
Q 1875 4263 2190 4108 
Q 2506 3953 2690 3670 
Q 2875 3388 2875 3009 
Q 2875 2731 2753 2481 
Q 2631 2231 2440 2026 
Q 2250 1822 1953 1562 
Q 1656 1303 1563 1216 
L 838 519 
L 1453 519 
Q 1906 519 2211 526 
Q 2516 534 2534 550 
Q 2609 631 2688 1141 
L 2875 1141 
L 2694 0 
L 319 0 
z
" transform="scale(0.015625)"/>
       </defs>
       <use xlink:href="#Cmr10-32" transform="translate(0 0.390625)"/>
       <use xlink:href="#Cmr10-30" transform="translate(50 0.390625)"/>
       <use xlink:href="#Cmr10-30" transform="translate(100 0.390625)"/>
       <use xlink:href="#Cmr10-30" transform="translate(150 0.390625)"/>
       <use xlink:href="#Cmr10-30" transform="translate(200 0.390625)"/>
       <use xlink:href="#Cmr10-30" transform="translate(250 0.390625)"/>
      </g>
     </g>
    </g>
    <g id="ytick_5">
     <g id="line2d_73">
      <g>
       <use xlink:href="#m4f898fb7fa" x="51.75375" y="18.189375" style="stroke: #000000; stroke-width: 0.5"/>
      </g>
     </g>
     <g id="line2d_74">
      <g>
       <use xlink:href="#m0df23120fb" x="596.621641" y="18.189375" style="stroke: #000000; stroke-width: 0.5"/>
      </g>
     </g>
     <g id="text_12">
      <!-- $\mathdefault{250000}$ -->
      <g transform="translate(18.25375 21.658906) scale(0.1 -0.1)">
       <use xlink:href="#Cmr10-32" transform="translate(0 0.390625)"/>
       <use xlink:href="#Cmr10-35" transform="translate(50 0.390625)"/>
       <use xlink:href="#Cmr10-30" transform="translate(100 0.390625)"/>
       <use xlink:href="#Cmr10-30" transform="translate(150 0.390625)"/>
       <use xlink:href="#Cmr10-30" transform="translate(200 0.390625)"/>
       <use xlink:href="#Cmr10-30" transform="translate(250 0.390625)"/>
      </g>
     </g>
    </g>
    <g id="ytick_6">
     <g id="line2d_75">
      <defs>
       <path id="m4961b7516c" d="M 0 0 
L 1.5 0 
" style="stroke: #000000; stroke-width: 0.5"/>
      </defs>
      <g>
       <use xlink:href="#m4961b7516c" x="51.75375" y="311.454375" style="stroke: #000000; stroke-width: 0.5"/>
      </g>
     </g>
     <g id="line2d_76">
      <defs>
       <path id="m4f136502e5" d="M 0 0 
L -1.5 0 
" style="stroke: #000000; stroke-width: 0.5"/>
      </defs>
      <g>
       <use xlink:href="#m4f136502e5" x="596.621641" y="311.454375" style="stroke: #000000; stroke-width: 0.5"/>
      </g>
     </g>
    </g>
    <g id="ytick_7">
     <g id="line2d_77">
      <g>
       <use xlink:href="#m4961b7516c" x="51.75375" y="299.723775" style="stroke: #000000; stroke-width: 0.5"/>
      </g>
     </g>
     <g id="line2d_78">
      <g>
       <use xlink:href="#m4f136502e5" x="596.621641" y="299.723775" style="stroke: #000000; stroke-width: 0.5"/>
      </g>
     </g>
    </g>
    <g id="ytick_8">
     <g id="line2d_79">
      <g>
       <use xlink:href="#m4961b7516c" x="51.75375" y="287.993175" style="stroke: #000000; stroke-width: 0.5"/>
      </g>
     </g>
     <g id="line2d_80">
      <g>
       <use xlink:href="#m4f136502e5" x="596.621641" y="287.993175" style="stroke: #000000; stroke-width: 0.5"/>
      </g>
     </g>
    </g>
    <g id="ytick_9">
     <g id="line2d_81">
      <g>
       <use xlink:href="#m4961b7516c" x="51.75375" y="276.262575" style="stroke: #000000; stroke-width: 0.5"/>
      </g>
     </g>
     <g id="line2d_82">
      <g>
       <use xlink:href="#m4f136502e5" x="596.621641" y="276.262575" style="stroke: #000000; stroke-width: 0.5"/>
      </g>
     </g>
    </g>
    <g id="ytick_10">
     <g id="line2d_83">
      <g>
       <use xlink:href="#m4961b7516c" x="51.75375" y="264.531975" style="stroke: #000000; stroke-width: 0.5"/>
      </g>
     </g>
     <g id="line2d_84">
      <g>
       <use xlink:href="#m4f136502e5" x="596.621641" y="264.531975" style="stroke: #000000; stroke-width: 0.5"/>
      </g>
     </g>
    </g>
    <g id="ytick_11">
     <g id="line2d_85">
      <g>
       <use xlink:href="#m4961b7516c" x="51.75375" y="241.070775" style="stroke: #000000; stroke-width: 0.5"/>
      </g>
     </g>
     <g id="line2d_86">
      <g>
       <use xlink:href="#m4f136502e5" x="596.621641" y="241.070775" style="stroke: #000000; stroke-width: 0.5"/>
      </g>
     </g>
    </g>
    <g id="ytick_12">
     <g id="line2d_87">
      <g>
       <use xlink:href="#m4961b7516c" x="51.75375" y="229.340175" style="stroke: #000000; stroke-width: 0.5"/>
      </g>
     </g>
     <g id="line2d_88">
      <g>
       <use xlink:href="#m4f136502e5" x="596.621641" y="229.340175" style="stroke: #000000; stroke-width: 0.5"/>
      </g>
     </g>
    </g>
    <g id="ytick_13">
     <g id="line2d_89">
      <g>
       <use xlink:href="#m4961b7516c" x="51.75375" y="217.609575" style="stroke: #000000; stroke-width: 0.5"/>
      </g>
     </g>
     <g id="line2d_90">
      <g>
       <use xlink:href="#m4f136502e5" x="596.621641" y="217.609575" style="stroke: #000000; stroke-width: 0.5"/>
      </g>
     </g>
    </g>
    <g id="ytick_14">
     <g id="line2d_91">
      <g>
       <use xlink:href="#m4961b7516c" x="51.75375" y="205.878975" style="stroke: #000000; stroke-width: 0.5"/>
      </g>
     </g>
     <g id="line2d_92">
      <g>
       <use xlink:href="#m4f136502e5" x="596.621641" y="205.878975" style="stroke: #000000; stroke-width: 0.5"/>
      </g>
     </g>
    </g>
    <g id="ytick_15">
     <g id="line2d_93">
      <g>
       <use xlink:href="#m4961b7516c" x="51.75375" y="182.417775" style="stroke: #000000; stroke-width: 0.5"/>
      </g>
     </g>
     <g id="line2d_94">
      <g>
       <use xlink:href="#m4f136502e5" x="596.621641" y="182.417775" style="stroke: #000000; stroke-width: 0.5"/>
      </g>
     </g>
    </g>
    <g id="ytick_16">
     <g id="line2d_95">
      <g>
       <use xlink:href="#m4961b7516c" x="51.75375" y="170.687175" style="stroke: #000000; stroke-width: 0.5"/>
      </g>
     </g>
     <g id="line2d_96">
      <g>
       <use xlink:href="#m4f136502e5" x="596.621641" y="170.687175" style="stroke: #000000; stroke-width: 0.5"/>
      </g>
     </g>
    </g>
    <g id="ytick_17">
     <g id="line2d_97">
      <g>
       <use xlink:href="#m4961b7516c" x="51.75375" y="158.956575" style="stroke: #000000; stroke-width: 0.5"/>
      </g>
     </g>
     <g id="line2d_98">
      <g>
       <use xlink:href="#m4f136502e5" x="596.621641" y="158.956575" style="stroke: #000000; stroke-width: 0.5"/>
      </g>
     </g>
    </g>
    <g id="ytick_18">
     <g id="line2d_99">
      <g>
       <use xlink:href="#m4961b7516c" x="51.75375" y="147.225975" style="stroke: #000000; stroke-width: 0.5"/>
      </g>
     </g>
     <g id="line2d_100">
      <g>
       <use xlink:href="#m4f136502e5" x="596.621641" y="147.225975" style="stroke: #000000; stroke-width: 0.5"/>
      </g>
     </g>
    </g>
    <g id="ytick_19">
     <g id="line2d_101">
      <g>
       <use xlink:href="#m4961b7516c" x="51.75375" y="123.764775" style="stroke: #000000; stroke-width: 0.5"/>
      </g>
     </g>
     <g id="line2d_102">
      <g>
       <use xlink:href="#m4f136502e5" x="596.621641" y="123.764775" style="stroke: #000000; stroke-width: 0.5"/>
      </g>
     </g>
    </g>
    <g id="ytick_20">
     <g id="line2d_103">
      <g>
       <use xlink:href="#m4961b7516c" x="51.75375" y="112.034175" style="stroke: #000000; stroke-width: 0.5"/>
      </g>
     </g>
     <g id="line2d_104">
      <g>
       <use xlink:href="#m4f136502e5" x="596.621641" y="112.034175" style="stroke: #000000; stroke-width: 0.5"/>
      </g>
     </g>
    </g>
    <g id="ytick_21">
     <g id="line2d_105">
      <g>
       <use xlink:href="#m4961b7516c" x="51.75375" y="100.303575" style="stroke: #000000; stroke-width: 0.5"/>
      </g>
     </g>
     <g id="line2d_106">
      <g>
       <use xlink:href="#m4f136502e5" x="596.621641" y="100.303575" style="stroke: #000000; stroke-width: 0.5"/>
      </g>
     </g>
    </g>
    <g id="ytick_22">
     <g id="line2d_107">
      <g>
       <use xlink:href="#m4961b7516c" x="51.75375" y="88.572975" style="stroke: #000000; stroke-width: 0.5"/>
      </g>
     </g>
     <g id="line2d_108">
      <g>
       <use xlink:href="#m4f136502e5" x="596.621641" y="88.572975" style="stroke: #000000; stroke-width: 0.5"/>
      </g>
     </g>
    </g>
    <g id="ytick_23">
     <g id="line2d_109">
      <g>
       <use xlink:href="#m4961b7516c" x="51.75375" y="65.111775" style="stroke: #000000; stroke-width: 0.5"/>
      </g>
     </g>
     <g id="line2d_110">
      <g>
       <use xlink:href="#m4f136502e5" x="596.621641" y="65.111775" style="stroke: #000000; stroke-width: 0.5"/>
      </g>
     </g>
    </g>
    <g id="ytick_24">
     <g id="line2d_111">
      <g>
       <use xlink:href="#m4961b7516c" x="51.75375" y="53.381175" style="stroke: #000000; stroke-width: 0.5"/>
      </g>
     </g>
     <g id="line2d_112">
      <g>
       <use xlink:href="#m4f136502e5" x="596.621641" y="53.381175" style="stroke: #000000; stroke-width: 0.5"/>
      </g>
     </g>
    </g>
    <g id="ytick_25">
     <g id="line2d_113">
      <g>
       <use xlink:href="#m4961b7516c" x="51.75375" y="41.650575" style="stroke: #000000; stroke-width: 0.5"/>
      </g>
     </g>
     <g id="line2d_114">
      <g>
       <use xlink:href="#m4f136502e5" x="596.621641" y="41.650575" style="stroke: #000000; stroke-width: 0.5"/>
      </g>
     </g>
    </g>
    <g id="ytick_26">
     <g id="line2d_115">
      <g>
       <use xlink:href="#m4961b7516c" x="51.75375" y="29.919975" style="stroke: #000000; stroke-width: 0.5"/>
      </g>
     </g>
     <g id="line2d_116">
      <g>
       <use xlink:href="#m4f136502e5" x="596.621641" y="29.919975" style="stroke: #000000; stroke-width: 0.5"/>
      </g>
     </g>
    </g>
    <g id="text_13">
     <!-- Articles -->
     <g transform="translate(11.926875 185.010938) rotate(-90) scale(0.12 -0.12)">
      <defs>
       <path id="Cmr10-41" d="M 206 0 
L 206 225 
Q 778 225 909 603 
L 2253 4513 
Q 2272 4581 2356 4581 
L 2438 4581 
Q 2522 4581 2541 4513 
L 3944 428 
Q 4003 294 4170 259 
Q 4338 225 4588 225 
L 4588 0 
L 2803 0 
L 2803 225 
Q 3334 225 3334 397 
L 3334 428 
L 2988 1428 
L 1434 1428 
L 1147 603 
Q 1141 581 1141 538 
Q 1141 378 1292 301 
Q 1444 225 1619 225 
L 1619 0 
L 206 0 
z
M 1509 1650 
L 2913 1650 
L 2209 3694 
L 1509 1650 
z
" transform="scale(0.015625)"/>
      </defs>
      <use xlink:href="#Cmr10-41"/>
      <use xlink:href="#Cmr10-72" transform="translate(75 0)"/>
      <use xlink:href="#Cmr10-74" transform="translate(114.111328 0)"/>
      <use xlink:href="#Cmr10-69" transform="translate(152.929688 0)"/>
      <use xlink:href="#Cmr10-63" transform="translate(180.615234 0)"/>
      <use xlink:href="#Cmr10-6c" transform="translate(225 0)"/>
      <use xlink:href="#Cmr10-65" transform="translate(252.685547 0)"/>
      <use xlink:href="#Cmr10-73" transform="translate(297.070312 0)"/>
     </g>
    </g>
   </g>
   <g id="patch_39">
    <path d="M 51.75375 311.454375 
L 51.75375 18.189375 
" style="fill: none; stroke: #000000; stroke-width: 0.5; stroke-linejoin: miter; stroke-linecap: square"/>
   </g>
   <g id="patch_40">
    <path d="M 596.621641 311.454375 
L 596.621641 18.189375 
" style="fill: none; stroke: #000000; stroke-width: 0.5; stroke-linejoin: miter; stroke-linecap: square"/>
   </g>
   <g id="patch_41">
    <path d="M 51.75375 311.454375 
L 596.621641 311.454375 
" style="fill: none; stroke: #000000; stroke-width: 0.5; stroke-linejoin: miter; stroke-linecap: square"/>
   </g>
   <g id="patch_42">
    <path d="M 51.75375 18.189375 
L 596.621641 18.189375 
" style="fill: none; stroke: #000000; stroke-width: 0.5; stroke-linejoin: miter; stroke-linecap: square"/>
   </g>
   <g id="text_14">
    <!-- Articles by country and language -->
    <g transform="translate(236.704883 12.189375) scale(0.12 -0.12)">
     <defs>
      <path id="Cmr10-62" d="M 666 0 
L 666 3788 
Q 666 3959 614 4036 
Q 563 4113 466 4130 
Q 369 4147 166 4147 
L 166 4372 
L 1113 4441 
L 1113 2438 
Q 1219 2556 1361 2645 
Q 1503 2734 1665 2781 
Q 1828 2828 1997 2828 
Q 2284 2828 2529 2712 
Q 2775 2597 2956 2394 
Q 3138 2191 3239 1927 
Q 3341 1663 3341 1381 
Q 3341 994 3152 659 
Q 2963 325 2636 126 
Q 2309 -72 1919 -72 
Q 1675 -72 1447 53 
Q 1219 178 1069 384 
L 850 0 
L 666 0 
z
M 1131 628 
Q 1238 394 1438 245 
Q 1638 97 1881 97 
Q 2213 97 2417 287 
Q 2622 478 2703 768 
Q 2784 1059 2784 1381 
Q 2784 1922 2644 2203 
Q 2581 2328 2473 2434 
Q 2366 2541 2233 2602 
Q 2100 2663 1953 2663 
Q 1697 2663 1478 2527 
Q 1259 2391 1131 2163 
L 1131 628 
z
" transform="scale(0.015625)"/>
     </defs>
     <use xlink:href="#Cmr10-41"/>
     <use xlink:href="#Cmr10-72" transform="translate(75 0)"/>
     <use xlink:href="#Cmr10-74" transform="translate(114.111328 0)"/>
     <use xlink:href="#Cmr10-69" transform="translate(152.929688 0)"/>
     <use xlink:href="#Cmr10-63" transform="translate(180.615234 0)"/>
     <use xlink:href="#Cmr10-6c" transform="translate(225 0)"/>
     <use xlink:href="#Cmr10-65" transform="translate(252.685547 0)"/>
     <use xlink:href="#Cmr10-73" transform="translate(297.070312 0)"/>
     <use xlink:href="#Cmr10-20" transform="translate(336.474609 0)"/>
     <use xlink:href="#Cmr10-62" transform="translate(369.775391 0)"/>
     <use xlink:href="#Cmr10-79" transform="translate(425.292969 0)"/>
     <use xlink:href="#Cmr10-20" transform="translate(477.978516 0)"/>
     <use xlink:href="#Cmr10-63" transform="translate(511.279297 0)"/>
     <use xlink:href="#Cmr10-6f" transform="translate(555.664062 0)"/>
     <use xlink:href="#Cmr10-75" transform="translate(605.664062 0)"/>
     <use xlink:href="#Cmr10-6e" transform="translate(661.181641 0)"/>
     <use xlink:href="#Cmr10-74" transform="translate(716.699219 0)"/>
     <use xlink:href="#Cmr10-72" transform="translate(755.517578 0)"/>
     <use xlink:href="#Cmr10-79" transform="translate(794.628906 0)"/>
     <use xlink:href="#Cmr10-20" transform="translate(847.314453 0)"/>
     <use xlink:href="#Cmr10-61" transform="translate(880.615234 0)"/>
     <use xlink:href="#Cmr10-6e" transform="translate(930.615234 0)"/>
     <use xlink:href="#Cmr10-64" transform="translate(986.132812 0)"/>
     <use xlink:href="#Cmr10-20" transform="translate(1041.650391 0)"/>
     <use xlink:href="#Cmr10-6c" transform="translate(1074.951172 0)"/>
     <use xlink:href="#Cmr10-61" transform="translate(1102.636719 0)"/>
     <use xlink:href="#Cmr10-6e" transform="translate(1152.636719 0)"/>
     <use xlink:href="#Cmr10-67" transform="translate(1208.154297 0)"/>
     <use xlink:href="#Cmr10-75" transform="translate(1258.154297 0)"/>
     <use xlink:href="#Cmr10-61" transform="translate(1313.671875 0)"/>
     <use xlink:href="#Cmr10-67" transform="translate(1363.671875 0)"/>
     <use xlink:href="#Cmr10-65" transform="translate(1413.671875 0)"/>
    </g>
   </g>
   <g id="legend_1">
    <g id="text_15">
     <!-- Language -->
     <g transform="translate(643.50566 34.128438) scale(0.1 -0.1)">
      <defs>
       <path id="Cmr10-4c" d="M 197 0 
L 197 225 
Q 856 225 856 428 
L 856 3944 
Q 856 4147 197 4147 
L 197 4372 
L 2272 4372 
L 2272 4147 
Q 1453 4147 1453 3944 
L 1453 428 
Q 1453 291 1531 258 
Q 1609 225 1778 225 
L 2272 225 
Q 2750 225 3009 400 
Q 3269 575 3376 876 
Q 3484 1178 3541 1678 
L 3725 1678 
L 3547 0 
L 197 0 
z
" transform="scale(0.015625)"/>
      </defs>
      <use xlink:href="#Cmr10-4c"/>
      <use xlink:href="#Cmr10-61" transform="translate(62.5 0)"/>
      <use xlink:href="#Cmr10-6e" transform="translate(112.5 0)"/>
      <use xlink:href="#Cmr10-67" transform="translate(168.017578 0)"/>
      <use xlink:href="#Cmr10-75" transform="translate(218.017578 0)"/>
      <use xlink:href="#Cmr10-61" transform="translate(273.535156 0)"/>
      <use xlink:href="#Cmr10-67" transform="translate(323.535156 0)"/>
      <use xlink:href="#Cmr10-65" transform="translate(373.535156 0)"/>
     </g>
    </g>
    <g id="patch_43">
     <path d="M 632.865035 48.189375 
L 652.865035 48.189375 
L 652.865035 41.189375 
L 632.865035 41.189375 
z
" style="fill: #7bbcb6"/>
    </g>
    <g id="text_16">
     <!-- Catalan -->
     <g transform="translate(660.865035 48.189375) scale(0.1 -0.1)">
      <use xlink:href="#Cmr10-43"/>
      <use xlink:href="#Cmr10-61" transform="translate(72.216797 0)"/>
      <use xlink:href="#Cmr10-74" transform="translate(122.216797 0)"/>
      <use xlink:href="#Cmr10-61" transform="translate(161.035156 0)"/>
      <use xlink:href="#Cmr10-6c" transform="translate(211.035156 0)"/>
      <use xlink:href="#Cmr10-61" transform="translate(238.720703 0)"/>
      <use xlink:href="#Cmr10-6e" transform="translate(288.720703 0)"/>
     </g>
    </g>
    <g id="patch_44">
     <path d="M 632.865035 62.128438 
L 652.865035 62.128438 
L 652.865035 55.128438 
L 632.865035 55.128438 
z
" style="fill: #9aa3b2"/>
    </g>
    <g id="text_17">
     <!-- French -->
     <g transform="translate(660.865035 62.128438) scale(0.1 -0.1)">
      <defs>
       <path id="Cmr10-68" d="M 191 0 
L 191 225 
Q 409 225 550 259 
Q 691 294 691 428 
L 691 3788 
Q 691 3959 639 4036 
Q 588 4113 491 4130 
Q 394 4147 191 4147 
L 191 4372 
L 1141 4441 
L 1141 2241 
Q 1275 2506 1515 2667 
Q 1756 2828 2047 2828 
Q 2491 2828 2714 2615 
Q 2938 2403 2938 1966 
L 2938 428 
Q 2938 294 3078 259 
Q 3219 225 3438 225 
L 3438 0 
L 1972 0 
L 1972 225 
Q 2191 225 2331 259 
Q 2472 294 2472 428 
L 2472 1947 
Q 2472 2259 2381 2461 
Q 2291 2663 2009 2663 
Q 1638 2663 1398 2366 
Q 1159 2069 1159 1691 
L 1159 428 
Q 1159 294 1300 259 
Q 1441 225 1656 225 
L 1656 0 
L 191 0 
z
" transform="scale(0.015625)"/>
      </defs>
      <use xlink:href="#Cmr10-46"/>
      <use xlink:href="#Cmr10-72" transform="translate(65.185547 0)"/>
      <use xlink:href="#Cmr10-65" transform="translate(104.296875 0)"/>
      <use xlink:href="#Cmr10-6e" transform="translate(148.681641 0)"/>
      <use xlink:href="#Cmr10-63" transform="translate(204.199219 0)"/>
      <use xlink:href="#Cmr10-68" transform="translate(248.583984 0)"/>
     </g>
    </g>
    <g id="patch_45">
     <path d="M 632.865035 76.119063 
L 652.865035 76.119063 
L 652.865035 69.119063 
L 632.865035 69.119063 
z
" style="fill: #f5c518"/>
    </g>
    <g id="text_18">
     <!-- Spanish -->
     <g transform="translate(660.865035 76.119063) scale(0.1 -0.1)">
      <use xlink:href="#Cmr10-53"/>
      <use xlink:href="#Cmr10-70" transform="translate(55.517578 0)"/>
      <use xlink:href="#Cmr10-61" transform="translate(111.035156 0)"/>
      <use xlink:href="#Cmr10-6e" transform="translate(161.035156 0)"/>
      <use xlink:href="#Cmr10-69" transform="translate(216.552734 0)"/>
      <use xlink:href="#Cmr10-73" transform="translate(244.238281 0)"/>
      <use xlink:href="#Cmr10-68" transform="translate(283.642578 0)"/>
     </g>
    </g>
    <g id="patch_46">
     <path d="M 632.865035 90.058125 
L 652.865035 90.058125 
L 652.865035 83.058125 
L 632.865035 83.058125 
z
" style="fill: #c08c38"/>
    </g>
    <g id="text_19">
     <!-- Italian -->
     <g transform="translate(660.865035 90.058125) scale(0.1 -0.1)">
      <use xlink:href="#Cmr10-49"/>
      <use xlink:href="#Cmr10-74" transform="translate(36.083984 0)"/>
      <use xlink:href="#Cmr10-61" transform="translate(74.902344 0)"/>
      <use xlink:href="#Cmr10-6c" transform="translate(124.902344 0)"/>
      <use xlink:href="#Cmr10-69" transform="translate(152.587891 0)"/>
      <use xlink:href="#Cmr10-61" transform="translate(180.273438 0)"/>
      <use xlink:href="#Cmr10-6e" transform="translate(230.273438 0)"/>
     </g>
    </g>
    <g id="patch_47">
     <path d="M 632.865035 103.997188 
L 652.865035 103.997188 
L 652.865035 96.997188 
L 632.865035 96.997188 
z
" style="fill: #2a7a78"/>
    </g>
    <g id="text_20">
     <!-- English -->
     <g transform="translate(660.865035 103.997188) scale(0.1 -0.1)">
      <defs>
       <path id="Cmr10-45" d="M 197 0 
L 197 225 
Q 856 225 856 428 
L 856 3944 
Q 856 4147 197 4147 
L 197 4372 
L 3816 4372 
L 3994 2906 
L 3809 2906 
Q 3741 3459 3617 3709 
Q 3494 3959 3222 4053 
Q 2950 4147 2406 4147 
L 1778 4147 
Q 1663 4147 1598 4137 
Q 1534 4128 1493 4083 
Q 1453 4038 1453 3944 
L 1453 2381 
L 1925 2381 
Q 2250 2381 2411 2436 
Q 2572 2491 2633 2645 
Q 2694 2800 2694 3128 
L 2881 3128 
L 2881 1409 
L 2694 1409 
Q 2694 1734 2633 1890 
Q 2572 2047 2411 2101 
Q 2250 2156 1925 2156 
L 1453 2156 
L 1453 428 
Q 1453 291 1531 258 
Q 1609 225 1778 225 
L 2456 225 
Q 2900 225 3173 295 
Q 3447 366 3598 530 
Q 3750 694 3833 955 
Q 3916 1216 3988 1678 
L 4172 1678 
L 3903 0 
L 197 0 
z
" transform="scale(0.015625)"/>
      </defs>
      <use xlink:href="#Cmr10-45"/>
      <use xlink:href="#Cmr10-6e" transform="translate(68.017578 0)"/>
      <use xlink:href="#Cmr10-67" transform="translate(123.535156 0)"/>
      <use xlink:href="#Cmr10-6c" transform="translate(173.535156 0)"/>
      <use xlink:href="#Cmr10-69" transform="translate(201.220703 0)"/>
      <use xlink:href="#Cmr10-73" transform="translate(228.90625 0)"/>
      <use xlink:href="#Cmr10-68" transform="translate(268.310547 0)"/>
     </g>
    </g>
    <g id="patch_48">
     <path d="M 632.865035 118.058125 
L 652.865035 118.058125 
L 652.865035 111.058125 
L 632.865035 111.058125 
z
" style="fill: #3f5573"/>
    </g>
    <g id="text_21">
     <!-- German -->
     <g transform="translate(660.865035 118.058125) scale(0.1 -0.1)">
      <use xlink:href="#Cmr10-47"/>
      <use xlink:href="#Cmr10-65" transform="translate(78.417969 0)"/>
      <use xlink:href="#Cmr10-72" transform="translate(122.802734 0)"/>
      <use xlink:href="#Cmr10-6d" transform="translate(161.914062 0)"/>
      <use xlink:href="#Cmr10-61" transform="translate(245.214844 0)"/>
      <use xlink:href="#Cmr10-6e" transform="translate(295.214844 0)"/>
     </g>
    </g>
   </g>
  </g>
 </g>
 <defs>
  <clipPath id="p9128739f82">
   <rect x="51.75375" y="18.189375" width="544.867891" height="293.265"/>
  </clipPath>
 </defs>
</svg>
